<?xml version="1.0" encoding="UTF-8"?>
<svg xmlns="http://www.w3.org/2000/svg" id="a" width="865.76" height="682.89" viewBox="0 0 865.76 682.89">
  <path d="M585.74,607.84c-.06,.15-.12,.31-.19,.46,4.38,1.98,9.17,2.79,14.01,2.62,5.02-.18,10.17-1.25,14.83-3.11,2.72-1.09,5.27-2.57,7.52-4.43-.95-2.6-2.54-5.64-4.79-9.35-2.6-4.29-5.14-4.95-14.62-24-4.79,1.22-5.95,.8-10.72,2.13-5.59,1.56-11.5,2.32-17.07,4.03,2.35,4.18,5.25,8.14,7,12.63,2.12,5.44,5.91,13.91,4.04,19.03h0Z" fill="#f1b2c0" stroke="#002346" stroke-miterlimit="10"></path>
  <path d="M626.83,601.57s3.01,4.52,4.91,7.52-8.99,11.31-13.21,16.76c-4.22,5.45-16.89,20.27-20.98,24.44s-8.45,5.53-15.12,5.53-8.45,.14-9.54-.95c-1.09-1.09-2.65-6.89-2.65-6.89l56.58-46.4Z" fill="#fff" stroke="#002346" stroke-miterlimit="10"></path>
  <path d="M571.48,649.31s11.93,2.94,19.15-1.41c7.22-4.35,33.16-35.75,36.78-40.63,3.62-4.88-8.65-14.51-13.13-17.78-3.81-2.78,1.05,4.37-1.65,11.48-2.7,7.11-14.93,6.17-23.36-.07-8.43-6.24-4.54,10.41-4.48,20.74,.07,10.33-19.7,25.11-13.33,27.68Z" fill="#ff9a52" stroke="#002346" stroke-miterlimit="10"></path>
  <path d="M618.13,567.16s-21.89-58.85-31.03-92.96-8.81-137.37-8.81-137.37l-45.95-.98s-11.21,98.24-9.39,123.5c1.82,25.26,27.46,75.2,34.79,92.75,3.83,9.16,7.69,18.31,11.59,27.45l48.81-12.37Z" fill="#a4bdbc" stroke="#002346" stroke-miterlimit="10"></path>
  <path d="M670.62,531.48c.1,.29,.19,.59,.27,.89,3.91-1.43,7.73-3.36,10.98-5.97,2.74-2.21,4.85-4.95,6.86-7.82,1.99-2.83,3.82-5.8,5.24-8.96,.66-1.48,1.28-3.08,1.63-4.72-2.4-1.4-5.59-2.73-9.75-4.15-4.75-1.63-7.12-.5-26.61-9.04-2.9,4.01-4.05,4.43-6.86,8.51-3.29,4.78-7.34,9.16-10.52,14.04,4.49,1.7,9.25,2.89,13.47,5.21,5.12,2.81,13.45,6.89,15.3,12.02h0Z" fill="#f1b2c0" stroke="#002346" stroke-miterlimit="10"></path>
  <path d="M676.69,578.06c.69,.18,1.46,.27,2.2,.43,2.89,.59,3.68,1.29,5.51-1.28,4.73-6.65,9.53-17.03,13.45-27.8,3.92-10.77,11.66-34.05,11.87-37.13,.21-3.08-11.85-7.24-11.85-7.24,0,0,3.88,3.74,.24,16.53-3.64,12.79-23.4,55.98-21.42,56.48h0Z" fill="#fff" stroke="#002346" stroke-miterlimit="10"></path>
  <path d="M676.69,578.06s1.75,.52,9.44-14.71c3.8-7.53,18.26-49.13,19.12-55.15-1.98-1.27-14.04-6.54-19.43-7.86-4.58-1.13,2.63,3.65,2.84,11.25,.21,7.6-6.65,3.92-17.12,4.57-13.7,.86-3.91,13.08-.78,25.12,2.6,10-4.85,32.7,5.92,36.8h0Z" fill="#ff9a52" stroke="#002346" stroke-miterlimit="10"></path>
  <path d="M663.6,487.34l-62.5-42.13s7.78-38.21,12.01-60.87c4.23-22.66,7.55-41.4,9.31-54.02,1.76-12.62-71.49-8.49-71.49-8.23s-32.51,132.88,0,151.57h0s74.24,48.15,88.92,56.8l23.74-43.12Z" fill="#a4bdbc" stroke="#002346" stroke-miterlimit="10"></path>
  <path d="M428.66,122.52c-.38-.13-9.91-22.5-12.2-24.91-2.29-2.42-4.83-6.74-5.59-13.47-.76-6.74,.25-11.49-1.53-15.05-1.78-3.56,1.31-6.78,3.22-6.4,1.91,.38,1.74,8.49,3.13,10.14,1.4,1.65,3.43-8.9,3.81-15.12,.38-6.23-.38-12.07-.76-14.49-.38-2.42,3.18-4.19,3.94-2.92s1.4,4.32,1.4,4.32c0,0-.38-6.23,.64-7.24,1.02-1.02,3.69-2.03,3.94-1.14s1.4,12.84,1.53,14.24c.13,1.4,2.16,2.54,2.54,4.83,.38,2.29-.89,23.51-.76,30.38,.13,6.86,14.49,23.26,14.49,23.26,0,0-4.36,29.95-6.39,36.11-4.98-7.34-11.4-22.51-11.4-22.51Z" fill="#f1b2c0" stroke="#002346" stroke-miterlimit="10"></path>
  <path d="M600.1,338.12c-17.49,5.17-57.33,7.23-69.29,5.04-3.65-.67-4.49-4.78-3.96-8.88,.53-4.11-11.14-76.58-11.81-81.41-.66-4.83-30.95-35.09-44.33-47.81-13.38-12.72-36.09-47.07-36.09-47.07l11.83-49.07s25.88,32.84,29.26,37.21c3.38,4.38,8.04,.4,8.22,3.44,.18,3.04-1.19,7.85,2.09,8.38,3.28,.53,7.36-.7,7.86,3.85,.49,4.54,20.95,23.91,27.7,28.88,2.54,1.87,5.67,1.73,9.28,.4s6.92-3.68,9.61-6.54c4.4-4.68,8.17-6.89,12.51-9.66,13-8.28,30.7-17.69,42.64-17.92,11.94-.23,2.94,13.46,3.72,15.09,.77,1.64,4.85,2.84,5.11,7.78,.26,4.93-1.35,7.65-1.35,7.65,0,0,11.11,11.55,19.59,27.8,8.48,16.26,15.59,34.86,16.3,36.51,.72,1.65,10.23-2.22,10.23-2.22l18.58,11.35s-5.45,38.83-9.75,47.21c-1.66,3.23-9.52,8.89-16.75,4.98-11.53-6.23-23.73-23-23.73-23,0,0-.38,14.6,3.19,21.89,3.57,7.29,5.29,11.16,6.62,15.53,1.32,4.37-5.32,5.41-5.32,5.41l-21.97,5.16Z" fill="#ff9a52" stroke="#002346" stroke-miterlimit="10"></path>
  <path d="M569.32,181.61s22.67-16.97,23.79-20.81c1.12-3.85-22.08,5.47-28.72,10.86-6.64,5.39,4.93,9.96,4.93,9.96Z" fill="#ff9a52" stroke="#002346" stroke-miterlimit="10"></path>
  <path d="M648.7,250.25s8.25-10.33,8.42-14.2c.17-3.87,0-8.09,2.02-10.78s2.86-10.2,4.55-12.34c1.68-2.14,3.87-.96,4.55,1.9,.67,2.86-2.36,7.92-2.19,9.94,.17,2.02,8.59,.69,11.62-1.26,3.03-1.94,11.45-15.03,14.99-15.48,3.54-.45,3.54,2.34,.51,6.08-3.03,3.74-9.43,10.94-8.25,12.4,1.18,1.45,17.01-16.14,20.72-12.9s-14.65,16.71-16.17,18.57c-1.52,1.85,2.02,1.54,7.58-2.01s10.44-5.28,11.62-3.48c1.18,1.79,1.35,4.15-6.06,8.36-7.41,4.21-11.96,5.11-11.96,7.35s6.06,.45,9.77-.51,3.71,2.47,1.68,4.38c-2.02,1.91-13.64,3.6-17.52,5.11-3.87,1.52-10.78,4.38-14.15,5.73-3.37,1.35-5.05,14.46-8.42,22.39-3.37,7.93-11.12,17.36-14.65,9.45-3.54-7.92-2.17-33.96,1.35-38.69h0Z" fill="#f1b2c0" stroke="#002346" stroke-miterlimit="10"></path>
  <path d="M569.32,181.61c-6.2,6.81-17.53,15.71-23.65,20.34-1.68,1.27-4.08,.03-4.02-2.08l.65-22.1,.26-8.74,.45-.51,23.31-26.2s-1.77,19.01,2.99,39.29Z" fill="#f1b2c0" stroke="#002346" stroke-miterlimit="10"></path>
  <path d="M533.04,190.5s-4.18,6.69-5.86,15.78" fill="none" stroke="#002346" stroke-linecap="round" stroke-linejoin="round"></path>
  <path d="M597.32,182.12s-24.17,4.67-43.4,20.3" fill="none" stroke="#002346" stroke-linecap="round" stroke-linejoin="round"></path>
  <line x1="601.59" y1="189.06" x2="590.5" y2="183.85" fill="none" stroke="#002346" stroke-linecap="round" stroke-linejoin="round"></line>
  <path d="M582.72,216.37s7.02-16.8,24.64-24.02" fill="none" stroke="#002346" stroke-linecap="round" stroke-linejoin="round"></path>
  <path d="M502.62,226.99l6.07,8.58c1.91,2.7,3.32,5.73,4.16,8.93l2.19,8.36" fill="none" stroke="#002346" stroke-linecap="round" stroke-linejoin="round"></path>
  <line x1="587.89" y1="253.27" x2="617.58" y2="290.13" fill="none" stroke="#002346" stroke-linecap="round" stroke-linejoin="round"></line>
  <path d="M627.81,260.34s5.63-7.53,11.42-8.01" fill="none" stroke="#002346" stroke-linecap="round" stroke-linejoin="round"></path>
  <path d="M629.04,269.31s4.38-12.38,15-17.79" fill="none" stroke="#002346" stroke-linecap="round" stroke-linejoin="round"></path>
  <path d="M666.05,224.77s5.43,6.32,6.68,15.04" fill="none" stroke="#002346" stroke-linecap="round" stroke-linejoin="round"></path>
  <line x1="670.43" y1="257.11" x2="661.15" y2="260.65" fill="none" stroke="#002346" stroke-linecap="round" stroke-linejoin="round"></line>
  <path d="M646.19,285.85s1.2,11.14,3.76,16.1c.98,1.89,3.56,2.09,4.78,.36,1.73-2.45,4.15-7.95,6.24-20.29" fill="none" stroke="#002346" stroke-linecap="round" stroke-linejoin="round"></path>
  <path d="M585.46,345.29s-4.1,21.99,15.63,31.63" fill="none" stroke="#002346" stroke-linecap="round" stroke-linejoin="round"></path>
  <path d="M423.77,43.24s.8,8.02,1.28,15.89" fill="none" stroke="#002346" stroke-linecap="round" stroke-linejoin="round"></path>
  <path d="M430.18,50.45s.49,5.62,.33,7.87" fill="none" stroke="#002346" stroke-linecap="round" stroke-linejoin="round"></path>
  <rect x="528.95" y="113.68" width="38.74" height="58.83" rx="19.37" ry="19.37" transform="translate(70.9 -162.19) rotate(17.97)" fill="#f1b2c0" stroke="#002346" stroke-miterlimit="10"></rect>
  <path d="M570.94,110.6s18.99,6.26,18.71,27.51c-.1,7.75-2.93,15.17-7.62,21.11-3.55,4.5-8.53,9.29-13.88,9.75-2.4,.21-4.33-2.09-3.96-4.62,.33-2.23-1.48-4.39,.84-8.92,0,0,.85-.21,1.97-.89,6.17-3.75,5.91-12.23-.94-14.52-.27-.09-.42-.13-.42-.13-5.29-.93-5.95-3.62-5.95-4.91,0-1.07-.07-2.15-.35-3.19-1.46-5.21-5.74-5.93-5.74-5.93l-18.78-6.65c-4.1-1.48-6.24-6.26-4.72-10.56h0c1.41-4,5.5-6.16,9.37-4.94,0,0,23.37-13.95,31.47,6.88Z" fill="#002346" stroke="#002346" stroke-miterlimit="10"></path>
  <ellipse cx="568.52" cy="148.6" rx="7.75" ry="5.12" transform="translate(192.26 599.96) rotate(-64.83)" fill="#f1b2c0" stroke="#002346" stroke-miterlimit="10"></ellipse>
  <path d="M288.69,150.61l1.67,27.98,13.53-7.17s6.18,1.37,10.84-1.64l-1.55-7.09-13.39-20.33-11.1,8.25Z" fill="#f1b2c0" stroke="#002346" stroke-miterlimit="10"></path>
  <rect x="290.71" y="117.4" width="35.47" height="50.91" rx="17.74" ry="17.74" transform="translate(-31.07 126.16) rotate(-22.04)" fill="#f1b2c0" stroke="#002346" stroke-miterlimit="10"></rect>
  <path d="M236.83,569.49c-.25,.57-14.97,26.68-20.1,32.68-7.18,8.4-13.16,18.71-12.15,22.57,1,3.87,61.26,29.42,63.93,26.51,2.67-2.91-27.3-17.84-28.63-37.85-1.52-10.93,25.12-39.23,38.85-52.92,1.87-1.86-.06-4.97-2.56-4.13l-39.34,13.14h0Z" fill="#f1b2c0" stroke="#002346" stroke-miterlimit="10"></path>
  <path d="M268.98,652.49c-1.97,.93-12.99,3.9-24.72-.33-19.21-6.94-42.36-21.28-43.17-24.2-.21-.76-.06-1.83,.33-3.08,2.07-6.53,10.9-18.19,10.9-18.19,1.65-.63,6.99,13.38,10.98,15.16,3.98,1.78,11.62-3.84,14.88-4.63,3.07-.75,4.07-1.33,6.48,3.89,5.38,11.63,11.32,14.2,16,19.8,1.96,2.34,11.09,5.35,10.58,8.67-.18,1.22-.86,2.26-2.26,2.92Z" fill="#a4bdbc" stroke="#002346" stroke-miterlimit="10"></path>
  <path d="M206.79,421.83s11.12,6.26,19.74,8.71l-8.18,25.57s-9.22-5.63-20.97-8.77c-5.25-1.4-11.64-10.48-5.02-19.02,6.61-8.54,14.44-6.49,14.44-6.49h0Z" fill="#f1b2c0" stroke="#002346" stroke-miterlimit="10"></path>
  <path d="M226.41,426.93s33.37,13.99,49.02,19.76c0,0,1.55,1.44,6.37,1.28,3.36-.11,2.61,2.35,4.07,1.75,1.46-.6-5.89-18.34-12.41-33.7-6.52-15.35-17.36-39.4-18.16-59.16-.8-19.76,6.78-15.8,14.02-6.54,7.23,9.26,34.34,10.56,34.34,10.56,16.07,29.87,45.58,156.41,2.2,151.94-17.15-1.77-82.67-34.18-101.26-39.77l21.81-46.12Z" fill="#ff9a52" stroke="#002346" stroke-miterlimit="10"></path>
  <path d="M217.91,587.45s30.57-79.77,37.26-95.05c6.69-15.28,8.6-30.09,2.87-55.41-5.73-25.31-11.94-46.49-15.76-75.31-3.82-28.82,13.37-57.96,13.37-57.96l63.85,9.56v12.46s-.07,128.91-1.39,146.1c-1.32,17.19-48.13,114.48-54.82,132.71l-45.38-17.12Z" fill="#ff9a52" stroke="#002346" stroke-miterlimit="10"></path>
  <path d="M358.02,270.47c-1.82-9.35-10.18-25.1-14.14-22.82-2.98,1.71-6.93,3.92-13.49,4.97-.3,2.31-.62,4.62-.96,6.93-1.82,12.14-3.27,28.38-5.06,40.53,9.42-2.95,10.77-10.97,15.62-16.94,5.01-6.17,19.86-3.32,18.04-12.67h0Z" fill="#a4bdbc" stroke="#002346" stroke-miterlimit="10"></path>
  <path d="M345.92,247.68s2.91-5.83,1.1-11.43,2.06-7.85,6.08,.01c1.73,3.39,1.65,7.24,2.2,7.4,4.12,1.2,13.9-8.55,21.04-10,4.22-.86,4.67,1.7-1.55,6.32-3.07,2.28-4.83,3.88-5.83,4.92-.33,.34,.06,.88,.49,.68,3.12-1.51,9.78-4.53,14.04-4.98,5.73-.6,7.38,2.16,2.98,3.85-3.54,1.35-12.7,6.27-16.15,8.14-.38,.21-.24,.78,.19,.79,2.19,.05,6.19-.02,8.43-1.11,3.19-1.56,4.53-3.15,6.84-2.84,3.52,.47,3.57,2.1-.34,5.33-3.91,3.22-4.32,3.69-8.82,4.47-4.49,.78-3.9,2.44-3.9,2.44,0,0-1.01,.98,2.75,1,3.76,.01,5.09-.8,8.13-.82,3.05-.02,.8,4.49-5.43,6.37-6.23,1.88-21.88,1.58-24.87,1.15-2.99-.42-7.39-21.69-7.39-21.69h0Z" fill="#f1b2c0" stroke="#002346" stroke-miterlimit="10"></path>
  <path d="M397.08,96.39s3.73-12.85,5.24-16.04c.82-1.75,1.9-3.5,2.71-4.72,.86-1.31,1.44-2.78,1.69-4.33,.5-3.05,.99-8.26-.25-13.07-1.91-7.39-6.4-16.04-8.01-22.76-1.61-6.72-3.95-5.67-4.69-3.73,0,0-1.09-4.93-3.5-4.66-2.45,.27-.9,3.82,.55,12.43,1.45,8.6,1.08,19.23-.3,22.87-1.38,3.64-12.41,20.59-12.41,20.59l18.99,13.42Z" fill="#f1b2c0" stroke="#002346" stroke-miterlimit="10"></path>
  <path d="M393.76,31.75s.49,5.26,4.14,16.23c0,0,1.9,5.96,1.08,9.21" fill="none" stroke="#002346" stroke-linecap="round" stroke-linejoin="round"></path>
  <path d="M355.31,243.66s2.06,4.42,1.71,9.05" fill="none" stroke="#002346" stroke-linecap="round" stroke-linejoin="round"></path>
  <path d="M268.22,654.2c-2.06,.97-21.99,1.89-25.13,.31-18.95-9.53-41.97-22.01-42.76-24.84-.21-.76,.7-3.53,1.1-4.79,3.77,2.56,21.45,13.33,42.19,24.46,5.26,2.82,24.33,.09,27.63,.23-.19,1.22-1.63,3.97-3.03,4.63h0Z" fill="#fff" stroke="#002346" stroke-miterlimit="10"></path>
  <path d="M165.24,473.27s5.99,.54,11.67-7.87c10.18-15.09,14.79-15.65,19.18-16.37,4.39-.72,8.03-.01,2.3-2.24-5.73-2.23-1.59-15.62,6.52-18.17,8.11-2.55,6.44-7.01-3.41-10.2-6.65-2.16-20.85,13.46-33.38,32.1-12.53,18.63-9.7,19.63-2.89,22.76h0Z" fill="#a4bdbc" stroke="#002346" stroke-miterlimit="10"></path>
  <path d="M167.8,441.46c10.65-16.15,27.45-29.27,27.45-29.27l6.25,6.16s-.35,1.56-4.35,4.15c-5,3.25-6.56,5.13-11.4,12.52-4.84,7.39-6.84,14.43-11.95,26.08-5.1,11.66-8.56,12.17-8.56,12.17-4.93-.73-7.76-3.28-7.76-3.28,0,0,6.74-23.1,10.32-28.53h0Z" fill="#002346" stroke="#002346" stroke-miterlimit="10"></path>
  <path d="M157.14,460.5s-2.68,7.39,.33,9.49c3.02,2.1,8.24-1.09,12.57-11.46,4.33-10.37,12-24.72,15.91-31.24,3.91-6.51,10.36-12.25,9.28-15.1-1.08-2.85-12.31,6.51-23.2,19.35-10.89,12.84-14.9,28.96-14.9,28.96h0Z" fill="#fff" stroke="#002346" stroke-miterlimit="10"></path>
  <ellipse cx="288.46" cy="147.39" rx="5.88" ry="7.44" transform="translate(-30.71 92.05) rotate(-17.23)" fill="#f1b2c0" stroke="#002346" stroke-miterlimit="10"></ellipse>
  <path d="M324.22,213.2c1.49,1.78,1.59,5.74,7.81,23.95,3.01,8.82,3.58,13.17,3.19,18.48-.41,5.66-4.13,7.22-4.9,21.64-1.49,27.98,.47,28.69-1.01,31.87-.91,1.94-5.73,4.3-7.58,5-5.99,2.27-15.79,.23-39.31-3.16-30.79-4.44-30.05-3.82-32.34-8.97-.63-1.42-.84-3.33-.27-4.4,.95-1.76,2.3-2.81,3.13-4.07,3.45-5.18,4.99-5.74,6.17-13.73,2.31-15.64,7.19-19.13,3.19-49.33-4-30.2,2.09-40.57,17.72-49.65,15.63-9.08,44.19,32.36,44.19,32.36h0Z" fill="#a4bdbc" stroke="#002346" stroke-miterlimit="10"></path>
  <g>
    <ellipse cx="272.18" cy="132.45" rx="10.68" ry="10.86" transform="translate(-26.35 182.52) rotate(-35.47)" fill="#002346" stroke="#002346" stroke-miterlimit="10"></ellipse>
    <ellipse cx="281.14" cy="134.22" rx="8.21" ry="8.35" transform="translate(-25.71 188.05) rotate(-35.47)" fill="#a4bdbc" stroke="#002346" stroke-miterlimit="10"></ellipse>
    <path d="M309.03,124.55c-.27,2.94-1.67,8.46-7.58,15.6,0,0,4.57,3.8,3.26,12.64-.38,2.57,.15,5.22,1.59,7.42,2.29,3.48,6.21,10.01,14.52,8.44,0,0-2.36,3.8-8.46,6.93,0,0,.14,5.8-4.78,10.4-2.03,1.89-5.01,2.52-7.63,1.49-3.48-1.38-8.35-5.25-13.16-15.56,0,0-20.11-33.04-5.05-48.59,0,0,5.81-8.27,15.05-11.16,9.32-2.92,20.4,1.48,23.29,13.9l-2.22-.63c-2.7-.99-3.22-1.19-5.52-2.52-.23-.13-.48-.23-.74-.27h0c-1.28-.23-2.44,.63-2.56,1.92Z" fill="#002346" stroke="#002346" stroke-miterlimit="10"></path>
  </g>
  <path d="M403.9,85.89c1.12,.59,1.56,1.97,.99,3.11-1.65,3.31-4.82,6.91-4.62,11.26,.36,7.94,3,15.02-2.77,23.88-5.77,8.85-8.95,18.9-11.46,30.88-1.54,7.34-6.91,20.56-17.51,29.59-14.97,12.74-21.62,16.17-27.76,23.39-6.13,7.22-9.12,22.34-27.88,25.59-18.76,3.25-35-28.5-35-28.5h0s-7.54-19.12,5.25-26.69c12.79-7.58,40.21-19.12,51.39-26.69,11.18-7.58,9.02-11.01,14.79-14.34,5.77-3.34,2.16-5.82,5.05-10.35,2.89-4.53,6.49-27.61,14.79-35.19,6.97-6.37,9.6-11.72,11.12-15.83,.43-1.16,1.79-1.67,2.88-1.09l20.74,11Z" fill="#a4bdbc" stroke="#002346" stroke-miterlimit="10"></path>
  <path d="M378.33,85.55s13.95,.36,21.89,13.54" fill="none" stroke="#002346" stroke-linecap="round" stroke-linejoin="round"></path>
</svg>
